PathFileType	4	(X/Y/Z)	Patient4_TMGait_0pt5_01_left_03.trc.trc
DataRate	CameraRate	NumFrames	NumMarkers	Units	OrigDataRate	OrigDataStartFrame	OrigNumFrames
71.794871794872	71.794871794872	5	33	mm	71.794871794872	1	       141
Frame#	Time	L.ASIS			Sacral			L.Shoulder			Chest			R.Shoulder			Neck			R.ASIS			R.Thigh.Superior			R.Thigh.Lateral			R.Thigh.Inferior			R.Patella			L.Thigh.Superior			L.Thigh.Lateral			L.Thigh.Inferior			L.Patella			L.Shank.Superior			L.Shank.Lateral			L.Shank.Inferior			R.Shank.Superior			R.Shank.Lateral			R.Shank.Inferior			R.Heel			R.Midfoot.Superior			R.Midfoot.Lateral			R.Toe			L.Heel			L.Midfoot.Lateral			L.Midfoot.Superior			L.Toe			L.Elbow			L.Wrist			R.Elbow			R.Wrist			
		X1	Y1	Z1	X2	Y2	Z2	X3	Y3	Z3	X4	Y4	Z4	X5	Y5	Z5	X6	Y6	Z6	X7	Y7	Z7	X8	Y8	Z8	X9	Y9	Z9	X10	Y10	Z10	X11	Y11	Z11	X12	Y12	Z12	X13	Y13	Z13	X14	Y14	Z14	X15	Y15	Z15	X16	Y16	Z16	X17	Y17	Z17	X18	Y18	Z18	X19	Y19	Z19	X20	Y20	Z20	X21	Y21	Z21	X22	Y22	Z22	X23	Y23	Z23	X24	Y24	Z24	X25	Y25	Z25	X26	Y26	Z26	X27	Y27	Z27	X28	Y28	Z28	X29	Y29	Z29	X30	Y30	Z30	X31	Y31	Z31	X32	Y32	Z32	X33	Y33	Z33	

1	3.820000000000	774.502923153838	962.299975396595	369.471454547364	563.807247963217	1002.681729586034	531.662129057071	726.928987001062	1437.155067948649	351.081583386629	833.771399270621	1367.349728508829	510.082722276261	750.539472621605	1436.433200873551	686.963814664343	730.784738177853	1496.555426258126	502.905111693914	796.448462149672	943.249257942370	641.996333514647	842.314016754908	743.630747883492	613.925614648208	762.486461198365	633.984214123519	670.592884831123	839.894974040250	583.176932176440	589.486394589636	840.839288554604	494.025864714028	592.878014417111	850.498743202953	768.414227863358	394.987731407050	796.347829152410	644.076346799344	320.823737701371	897.942315729824	576.831011567719	378.909646068408	905.630578478107	485.717040398909	373.385181641339	836.606705912967	421.042168716494	367.371358194075	693.828428647407	383.890837443332	317.704399431310	675.295717359548	256.381356296953	374.549977180966	813.359472217736	405.467288150774	599.204549635175	743.597725898103	300.653610626488	659.168702839661	785.041010357919	207.108028164611	594.919261706582	648.199388792410	43.767953005457	563.261216974811	821.105352060708	97.307106542234	598.153484967241	732.146676979596	36.448775715327	637.274715187819	940.394855587403	42.977486627079	624.309616461147	479.119970090392	200.039783484978	409.722929887390	537.399147408180	152.467711404419	330.659013410955	642.637396690818	156.653605984501	353.523709669615	717.047107417675	41.964656417171	327.680277756722	723.041858237150	1078.967111539420	238.391173907305	853.490811707236	851.780005516313	229.882612759561	758.142330061787	1092.392892029445	815.093170008234	937.376700519566	903.621032261770	808.822752089007	
2	3.833928571429	772.698152187466	963.026519733474	369.950190613723	562.701699199723	1003.470577704347	532.899282017795	725.809027876091	1437.485390443326	351.743749128955	833.376508618017	1367.554576510154	510.169423446167	751.304652913674	1436.932481301005	687.475798215278	730.607682825280	1496.897989128748	503.494850638514	795.810029928747	943.368169654079	642.382665868885	840.075966610768	743.277061059264	613.568982139211	759.945503029682	634.056602223552	670.743618049834	836.482644851961	582.836872246894	589.226384620136	836.893589384974	493.881232356285	592.667760675705	850.359680717267	770.912854258312	395.480045491646	797.703528199941	646.129435407900	321.280119406269	899.967812547514	579.953184321282	379.184361849573	908.845192594792	489.141261138806	373.705769772099	841.286911439082	423.261871262901	367.441295004959	699.414700734941	382.705501609157	317.533614102558	684.139665846480	254.455724978211	373.922363225064	809.480227773129	405.433022989423	599.138596687724	739.680181180026	300.663283236430	659.152448029628	781.082634954041	207.140009327324	594.842254930188	644.125358205814	43.740254181568	563.246481138226	817.038794043346	97.294263210290	598.105577888494	728.098836355769	36.458785285690	637.272607598338	936.321489806857	43.042743696681	624.311782704678	489.431361199877	192.817206701474	408.805169088282	548.911333253337	147.120056467333	329.559492971306	654.044752401562	154.043211281994	352.495608296740	731.542394682427	41.505772853449	326.138582305431	718.158308519327	1079.330495457980	239.270759446463	841.132112778032	848.778596928179	229.297062285163	763.579467009982	1093.715587350834	816.599620456072	948.310424639687	911.033054862868	808.749116648690	
3	3.847857142857	770.516699362237	963.898402332043	370.478012989655	561.374329529929	1004.443517429435	534.381975373497	724.500745147457	1437.920770167313	352.535823849820	832.947260393528	1367.803812063745	510.246765177122	752.325693793867	1437.533086785979	688.078318064744	730.441733023049	1497.329756166737	504.209145541569	794.971285442590	943.488833881685	642.790954355011	837.290419258112	742.859121596484	613.110552367439	756.809652350278	634.164949065892	670.958553239428	832.266207384177	582.437198181065	588.934710370131	832.038229170975	493.723512147086	592.462070002886	850.062069302346	773.808735908369	396.097308983689	799.050431204076	648.490434826342	321.859336934233	901.944151791904	583.486927691856	379.677309077808	912.249762932316	493.188401505410	374.224557937160	846.719919206378	425.893253665946	367.582934171791	706.385096133132	380.782720358317	317.277606089192	695.557492713534	251.796759054488	373.127929395380	804.692564676566	405.397694267582	599.088247325879	734.844907087024	300.681264549004	659.162703367530	776.196591631246	207.176756722083	594.775296261147	639.108244965737	43.698650779783	563.239897215837	812.024886677326	97.279086520872	598.069164447495	723.104168930381	36.467741924450	637.283253225945	931.307124184196	43.117436041746	624.337173388974	503.254621545289	183.116254617832	407.547057239866	564.246850182563	140.038955385288	328.107818065571	668.997908534440	150.643213834883	351.208717832920	750.495922604797	41.239424310244	324.279153478311	712.005776894048	1079.903739265801	240.234142815027	825.918193839493	845.523031734306	228.647370268783	770.201018317873	1095.374792334270	818.353300969364	961.514349762002	920.526663199189	808.410055440142	
4	3.861785714286	768.016533071468	964.856400224070	371.011719129432	559.862734406823	1005.549394195207	536.043587082569	723.050680976434	1438.426138054658	353.416362116067	832.496208334907	1368.057402008892	510.289768419445	753.576701012851	1438.181649604499	688.727795663363	730.294318633580	1497.808951608260	505.009704146644	793.928960759990	943.585180496957	643.181774922785	834.016597077422	742.377202808464	612.562333518944	753.146600113728	634.296997803948	671.229045436479	827.347910548390	581.981096058637	588.624815838152	826.394915884613	493.549783733385	592.274257510390	849.523023459717	776.910824882622	396.813642695269	800.191335659830	651.010094678873	322.521013604078	903.584536586624	587.189377290327	380.405693803481	915.512728384345	497.667115941900	374.945906379370	852.602857590934	428.833271658693	367.793888852734	714.594550194926	378.042053717283	316.913712673358	709.423143829829	248.457364348433	372.189292962559	799.109600351742	405.353493971748	599.053822985388	729.203757109961	300.702498945182	659.197436844491	770.487588233950	207.209340788841	594.718115513530	633.255029737817	43.643508282390	563.236965171007	806.166858029825	97.260566622416	598.040937269463	717.265879190588	36.473801343769	637.299914726620	925.454862716498	43.195222853501	624.380326940442	520.666772951911	171.049425279849	405.954449383565	583.441648084913	131.367298652215	326.343045660973	687.417784314967	146.591276146882	349.721969535363	773.750557796048	41.408005348512	322.232182444581	704.677931014346	1080.696982723721	241.220936421169	808.237950705359	842.232187889920	227.980415283479	777.799208782374	1097.310837656360	820.242404127441	976.511079165632	931.977087070273	807.692787266578	
5	3.875714285714	765.279188956852	965.828447478669	371.504652905921	558.217607221315	1006.723395141996	537.800429497414	721.517359966026	1438.957815964415	354.332790871007	832.036608980129	1368.270706789147	510.272548274313	755.009885654982	1438.817463910390	689.372496951076	730.171465562390	1498.286890189664	505.847331460187	792.696077439847	943.632588692273	643.516771121703	830.354083795834	741.834529558283	611.949472531667	749.063325148845	634.436474093483	671.541381479728	821.886409158068	581.474222169990	588.313700512181	820.146657961326	493.355467637790	592.116107367299	848.654463130968	779.987312550791	397.592303152099	800.916939282284	653.514066947428	323.204446542743	904.593169133042	590.782019744507	381.362619491980	918.280565964831	502.342279715936	375.852642849554	858.575299022848	431.959721372252	368.061864728615	723.819821407597	374.471961521394	316.422331068974	725.446355708307	244.581916276710	371.148209005017	792.904374502660	405.290874339552	599.033777348567	722.926576239389	300.721044196299	659.252600424815	764.115053835681	207.227077776147	594.669196979583	626.723918884537	43.577108334307	563.233573081804	799.620172764557	97.237899765120	598.016594534266	710.739516456378	36.475386066580	637.315818382289	918.919613043454	43.268685733596	624.434362717351	541.540669690266	156.960694131903	404.068982531204	606.303672395010	121.423039477424	324.348216663510	709.001049049718	142.130988737933	348.129499026958	800.847912450570	42.300424683959	320.183832908070	696.345793041828	1081.708505478560	242.171427787242	788.658150035120	839.138866748237	227.351473508880	786.096410472101	1099.441500721818	822.131227694691	992.670859451078	945.138997230108	806.489704824138	
